<svg xmlns="http://www.w3.org/2000/svg" viewBox="0 0 720 190" role="img" aria-labelledby="title desc">
  <title id="title">SecretariaPay IMETRO</title>
  <desc id="desc">Assinatura institucional dourada do SecretáriaPay para o portal de admissões do IMETRO.</desc>
  <defs>
    <linearGradient id="gold" x1="0" y1="0" x2="1" y2="1">
      <stop offset="0" stop-color="#FFF2A8"/>
      <stop offset="0.22" stop-color="#F6D567"/>
      <stop offset="0.5" stop-color="#C89322"/>
      <stop offset="0.74" stop-color="#FFE89A"/>
      <stop offset="1" stop-color="#A96F10"/>
    </linearGradient>
    <linearGradient id="goldDark" x1="0" y1="0" x2="0" y2="1">
      <stop offset="0" stop-color="#F8D76A"/>
      <stop offset="1" stop-color="#9C6510"/>
    </linearGradient>
    <filter id="shadow" x="-20%" y="-20%" width="140%" height="150%">
      <feDropShadow dx="0" dy="6" stdDeviation="6" flood-color="#000814" flood-opacity=".45"/>
    </filter>
  </defs>

  <g transform="translate(8 5)" filter="url(#shadow)">
    <path d="M78 20 10 52l68 32 68-32-68-32Z" fill="url(#gold)" stroke="#FFE99C" stroke-width="2"/>
    <path d="M35 67v28c0 20 19 34 43 34s43-14 43-34V67L78 87 35 67Z" fill="url(#goldDark)" stroke="#F7D870" stroke-width="2"/>
    <path d="M22 57v54" fill="none" stroke="#F7D870" stroke-width="5" stroke-linecap="round"/>
    <circle cx="22" cy="117" r="7" fill="#F7D870"/>
    <path d="m22 123-8 28h16l-8-28Z" fill="url(#goldDark)"/>

    <rect x="54" y="101" width="83" height="63" rx="10" fill="#071A35" stroke="url(#gold)" stroke-width="5"/>
    <path d="M69 120h36M69 135h29M69 150h22" stroke="#E8BE4A" stroke-width="6" stroke-linecap="round"/>
    <circle cx="130" cy="145" r="27" fill="#071A35" stroke="url(#gold)" stroke-width="7"/>
    <path d="m114 145 10 10 22-27" fill="none" stroke="#FFE89A" stroke-width="8" stroke-linecap="round" stroke-linejoin="round"/>
  </g>

  <g transform="translate(178 26)">
    <text x="0" y="62" font-family="Manrope, Inter, Arial, sans-serif" font-size="55" font-weight="800" letter-spacing="-2" fill="url(#gold)" stroke="#7B500B" stroke-width=".65">SecretariaPay</text>
    <text x="2" y="101" font-family="Inter, Arial, sans-serif" font-size="24" font-weight="800" letter-spacing="8" fill="#FFFFFF">IMETRO</text>
    <line x1="2" y1="118" x2="435" y2="118" stroke="#F4B400" stroke-opacity=".65"/>
    <text x="2" y="145" font-family="Inter, Arial, sans-serif" font-size="16" font-weight="700" letter-spacing="2.4" fill="#C9D7E7">PORTAL DE ADMISSÕES 2026/2027</text>
  </g>
</svg>
